<svg width="70" height="70" viewBox="0 0 70 70" fill="none" xmlns="http://www.w3.org/2000/svg">
<path fill-rule="evenodd" clip-rule="evenodd" d="M31.6651 24.319C33.1763 22.2825 33.7182 20.1363 32.0091 18.2418C28.1738 12.8752 25.5945 9.55652 23.9766 7.95832C20.9008 4.91993 15.8411 5.33092 13.1772 7.95572C11.7464 9.36553 11.262 9.84966 9.79292 11.3419C1.60977 19.5294 6.60027 36.8376 19.8669 50.1172C33.1304 63.3938 50.437 68.387 58.6373 60.1821C59.993 58.8752 61.1408 57.7268 62.046 56.77C64.6565 54.0108 65.0528 49.1742 62.0288 46.0322C60.4784 44.4212 57.3138 41.9664 51.7214 37.9661C50.0086 36.4346 47.9777 36.7665 46.1158 37.988C45.2202 38.5756 44.5685 39.17 43.3377 40.4019L41.1029 42.638C40.8085 42.9326 36.8115 40.9309 32.9316 37.0471C29.0495 33.1612 27.0492 29.164 27.3422 28.8711C27.9463 28.2669 28.6918 27.5211 29.5786 26.6334C29.969 26.2425 30.1557 26.0533 30.3951 25.8017C30.8939 25.2775 31.3069 24.8018 31.6651 24.319ZM45.2254 46.763L47.4607 44.5264C48.138 43.8484 48.577 43.4316 48.9341 43.1441C53.8331 46.6622 56.6703 48.8744 57.8292 50.0785C58.525 50.8015 58.4169 52.1207 57.8121 52.76C56.975 53.6447 55.8875 54.7328 54.5529 56.0201C49.2503 61.3249 35.28 57.2943 23.9903 45.9935C12.697 34.6891 8.6683 20.7167 13.9309 15.4512C15.3941 13.9652 15.8577 13.5018 17.268 12.1121C17.7968 11.5911 19.2372 11.4741 19.8805 12.1096C21.1261 13.34 23.4367 16.2985 26.8357 21.0333C26.6598 21.2517 26.44 21.4986 26.1725 21.7797C25.9762 21.986 25.8127 22.1518 25.4552 22.5097C24.5691 23.3966 23.8243 24.1418 23.2209 24.7451C19.4201 28.5457 22.657 35.014 28.8082 41.1712C34.9551 47.3241 41.4258 50.5646 45.2254 46.763ZM39.8275 6.03575C52.4372 7.56419 62.4357 17.5627 63.9641 30.1723L58.2024 31.1326C57.0899 20.9757 49.0242 12.9099 38.8672 11.7974L39.8275 6.03575ZM37.9062 17.5641C45.6106 18.2532 51.7467 24.3893 52.4358 32.0938L46.6556 33.0571C46.4104 27.8045 42.1954 23.5896 36.9428 23.3443L37.9062 17.5641Z" fill="#656565"/>
</svg>
