<svg width="214" height="209" viewBox="0 0 214 209" fill="none" xmlns="http://www.w3.org/2000/svg">
<rect x="18.0591" y="181.654" width="178.333" height="27.3458" rx="5" fill="#A1C3D1"/>
<rect x="18.0591" y="59.0864" width="37.924" height="113.29" rx="5" fill="#A1C3D1"/>
<rect x="22.5739" y="66.4111" width="7.67511" height="95.222" rx="3.83755" fill="#A1C3D1"/>
<rect x="158.92" y="59.0864" width="37.9241" height="113.29" rx="5" fill="#A1C3D1"/>
<rect x="163.435" y="66.4111" width="7.67511" height="95.222" rx="3.83755" fill="#A1C3D1"/>
<path d="M32.5002 7.20725C34.4393 3.95346 39.1514 3.95346 41.0905 7.20724L64.1559 45.9111C66.1421 49.244 63.7406 53.4708 59.8608 53.4708H13.7299C9.85011 53.4708 7.4486 49.244 9.4348 45.9111L32.5002 7.20725Z" fill="#A1C3D1"/>
<rect width="3.95566" height="40.8276" rx="1.97783" transform="matrix(0.828518 0.559962 -0.500244 0.865884 34.3292 10.0786)" fill="#A1C3D1"/>
<path d="M172.91 7.20725C174.849 3.95346 179.561 3.95346 181.5 7.20724L204.565 45.9111C206.551 49.244 204.15 53.4708 200.27 53.4708H154.139C150.259 53.4708 147.858 49.244 149.844 45.9111L172.91 7.20725Z" fill="#A1C3D1"/>
<rect width="3.95566" height="40.8276" rx="1.97783" transform="matrix(0.828519 0.559961 -0.500245 0.865884 174.739 10.0786)" fill="#A1C3D1"/>
<rect x="63.2067" y="153.332" width="88.038" height="16.6028" rx="5" fill="#A1C3D1"/>
<rect x="63.2067" y="121.591" width="88.038" height="16.6028" rx="5" fill="#A1C3D1"/>
<rect x="63.2067" y="89.8506" width="88.038" height="16.6028" rx="5" fill="#A1C3D1"/>
</svg>
