<svg width="187" height="184" viewBox="0 0 187 184" fill="none" xmlns="http://www.w3.org/2000/svg">
<rect x="13.5018" y="164.146" width="133.33" height="19.8536" rx="5" fill="#FFCADE"/>
<rect x="13.5018" y="75.1602" width="28.3538" height="82.2505" rx="5" fill="#FFCADE"/>
<rect x="16.8773" y="80.478" width="5.73827" height="69.1329" rx="2.86913" fill="white"/>
<rect x="118.816" y="75.1602" width="28.3538" height="82.2505" rx="5" fill="#FFCADE"/>
<rect x="122.191" y="80.478" width="5.73827" height="69.1329" rx="2.86913" fill="white"/>
<path d="M23.2484 39.2062C25.1998 36.0265 29.8201 36.0265 31.7714 39.2062L46.6607 63.4677C48.7053 66.7993 46.3081 71.083 42.3992 71.083H12.6206C8.71176 71.083 6.31457 66.7993 8.35912 63.4677L23.2484 39.2062Z" fill="#FFCADE"/>
<rect width="2.93088" height="29.865" rx="1.46544" transform="matrix(0.836026 0.54869 -0.511293 0.859407 25.6661 39.5791)" fill="white"/>
<path d="M128.225 39.2062C130.176 36.0265 134.797 36.0265 136.748 39.2062L151.637 63.4677C153.682 66.7993 151.285 71.083 147.376 71.083H117.597C113.688 71.083 111.291 66.7993 113.336 63.4677L128.225 39.2062Z" fill="#FFCADE"/>
<rect width="2.93087" height="29.865" rx="1.46544" transform="matrix(0.836026 0.54869 -0.511293 0.859407 130.643 39.5791)" fill="white"/>
<rect x="47.2563" y="143.584" width="65.8213" height="12.054" rx="5" fill="#FFCADE"/>
<rect x="47.2563" y="120.54" width="65.8213" height="12.0539" rx="5" fill="#FFCADE"/>
<rect x="47.2563" y="97.4951" width="65.8213" height="12.0539" rx="5" fill="#FFCADE"/>
<path fill-rule="evenodd" clip-rule="evenodd" d="M174.623 5.99245C174.256 5.93725 173.88 5.90868 173.498 5.90868C173.116 5.90868 172.74 5.93725 172.373 5.99245V1.23463C172.744 1.19956 173.119 1.18164 173.498 1.18164C173.877 1.18164 174.253 1.19956 174.623 1.23463V5.99245ZM167.872 14.181C167.872 17.4443 170.391 20.0898 173.498 20.0898C176.605 20.0898 179.124 17.4443 179.124 14.181C179.124 10.9177 176.605 8.2722 173.498 8.2722C170.391 8.2722 167.872 10.9177 167.872 14.181ZM176.874 14.181C176.874 16.139 175.362 17.7263 173.498 17.7263C171.634 17.7263 170.123 16.139 170.123 14.181C170.123 12.223 171.634 10.6357 173.498 10.6357C175.362 10.6357 176.874 12.223 176.874 14.181ZM174.623 27.1274V22.3696C174.256 22.4248 173.88 22.4533 173.498 22.4533C173.116 22.4533 172.74 22.4248 172.373 22.3696V27.1274C172.744 27.1624 173.119 27.1804 173.498 27.1804C173.877 27.1804 174.253 27.1624 174.623 27.1274ZM181.295 12.9992H185.824C185.858 13.3885 185.875 13.7826 185.875 14.181C185.875 14.5794 185.858 14.9735 185.824 15.3628H181.295C181.347 14.9768 181.374 14.5822 181.374 14.181C181.374 13.7798 181.347 13.3852 181.295 12.9992ZM165.622 14.181C165.622 13.7798 165.649 13.3852 165.702 12.9992H161.172C161.139 13.3885 161.121 13.7826 161.121 14.181C161.121 14.5794 161.139 14.9735 161.172 15.3628H165.702C165.649 14.9768 165.622 14.5822 165.622 14.181ZM178.215 7.5556L181.418 4.19126C181.995 4.69667 182.528 5.25624 183.009 5.86252L179.806 9.22686C179.354 8.59332 178.818 8.03009 178.215 7.5556ZM163.987 5.86252L167.19 9.22686C167.642 8.59332 168.178 8.03009 168.781 7.5556L165.578 4.19126C165.001 4.69667 164.468 5.25624 163.987 5.86252ZM179.806 19.1351L183.009 22.4995C182.528 23.1058 181.995 23.6653 181.418 24.1707L178.215 20.8064C178.818 20.3319 179.354 19.7687 179.806 19.1351ZM165.578 24.1707L168.781 20.8064C168.178 20.3319 167.642 19.7687 167.19 19.1351L163.987 22.4995C164.468 23.1058 165.001 23.6653 165.578 24.1707Z" fill="#FFCADE"/>
</svg>
