<svg width="1440" height="900" viewBox="0 0 1440 900" fill="none" xmlns="http://www.w3.org/2000/svg">
<rect width="1440" height="900" fill="#A1C3D1"/>
<path d="M464.151 83.0697L504.841 97.8796L471.67 125.713L464.151 83.0697Z" fill="#D9C3CB"/>
<path d="M74.5295 590.852L105.148 621.47L63.3223 632.678L74.5295 590.852Z" fill="#D9C3CB"/>
<path d="M796.651 711.5L834.151 733.151L796.651 754.801L796.651 711.5Z" fill="#D9C3CB"/>
<path fill-rule="evenodd" clip-rule="evenodd" d="M324 196.917C311.344 196.917 301.083 186.657 301.083 174C301.083 161.343 311.344 151.083 324 151.083C336.657 151.083 346.917 161.343 346.917 174C346.917 186.657 336.657 196.917 324 196.917ZM324 192.75C334.355 192.75 342.75 184.355 342.75 174C342.75 163.645 334.355 155.25 324 155.25C313.645 155.25 305.25 163.645 305.25 174C305.25 184.355 313.645 192.75 324 192.75ZM334.23 181.184L330.822 178.787C329.269 180.995 326.749 182.333 324 182.333C321.251 182.333 318.731 180.995 317.178 178.787L313.77 181.184C316.095 184.49 319.88 186.5 324 186.5C328.12 186.5 331.905 184.49 334.23 181.184ZM328.167 171.917V167.75H332.333V171.917H328.167ZM315.667 167.75V171.917H319.833V167.75H315.667Z" fill="#EBDFE3"/>
<path fill-rule="evenodd" clip-rule="evenodd" d="M1204 533.917C1191.34 533.917 1181.08 523.657 1181.08 511C1181.08 498.343 1191.34 488.083 1204 488.083C1216.66 488.083 1226.92 498.343 1226.92 511C1226.92 523.657 1216.66 533.917 1204 533.917ZM1204 529.75C1214.36 529.75 1222.75 521.355 1222.75 511C1222.75 500.645 1214.36 492.25 1204 492.25C1193.64 492.25 1185.25 500.645 1185.25 511C1185.25 521.355 1193.64 529.75 1204 529.75ZM1214.23 518.184L1210.82 515.787C1209.27 517.995 1206.75 519.333 1204 519.333C1201.25 519.333 1198.73 517.995 1197.18 515.787L1193.77 518.184C1196.09 521.49 1199.88 523.5 1204 523.5C1208.12 523.5 1211.91 521.49 1214.23 518.184ZM1208.17 508.917V504.75H1212.33V508.917H1208.17ZM1195.67 504.75V508.917H1199.83V504.75H1195.67Z" fill="#EBDFE3"/>
<path fill-rule="evenodd" clip-rule="evenodd" d="M540 631.917C527.344 631.917 517.083 621.657 517.083 609C517.083 596.343 527.344 586.083 540 586.083C552.657 586.083 562.917 596.343 562.917 609C562.917 621.657 552.657 631.917 540 631.917ZM540 627.75C550.355 627.75 558.75 619.355 558.75 609C558.75 598.645 550.355 590.25 540 590.25C529.645 590.25 521.25 598.645 521.25 609C521.25 619.355 529.645 627.75 540 627.75ZM550.23 616.184L546.822 613.787C545.269 615.995 542.749 617.333 540 617.333C537.251 617.333 534.731 615.995 533.178 613.787L529.77 616.184C532.095 619.49 535.88 621.5 540 621.5C544.12 621.5 547.905 619.49 550.23 616.184ZM544.167 606.917V602.75H548.333V606.917H544.167ZM531.667 602.75V606.917H535.833V602.75H531.667Z" fill="#EBDFE3"/>
</svg>
