<svg width="1440" height="900" viewBox="0 0 1440 900" fill="none" xmlns="http://www.w3.org/2000/svg">
<rect width="1440" height="900" fill="#78b4ce"/>
<path d="M458.406 87.8909L486.889 98.2578L463.669 117.741L458.406 87.8909Z" fill="#D9C3CB"/>
<path d="M67.285 592.793L88.7181 614.226L59.44 622.071L67.285 592.793Z" fill="#D9C3CB"/>
<path d="M790.155 715.25L816.405 730.405L790.155 745.561L790.155 715.25Z" fill="#D9C3CB"/>
<path fill-rule="evenodd" clip-rule="evenodd" d="M314 177.75C306.406 177.75 300.25 171.594 300.25 164C300.25 156.406 306.406 150.25 314 150.25C321.594 150.25 327.75 156.406 327.75 164C327.75 171.594 321.594 177.75 314 177.75ZM314 175.25C320.213 175.25 325.25 170.213 325.25 164C325.25 157.787 320.213 152.75 314 152.75C307.787 152.75 302.75 157.787 302.75 164C302.75 170.213 307.787 175.25 314 175.25ZM320.138 168.31L318.093 166.872C317.162 168.197 315.649 169 314 169C312.351 169 310.838 168.197 309.907 166.872L307.862 168.31C309.257 170.294 311.528 171.5 314 171.5C316.472 171.5 318.743 170.294 320.138 168.31ZM316.5 162.75V160.25H319V162.75H316.5ZM309 160.25V162.75H311.5V160.25H309Z" fill="#EBDFE3"/>
<path fill-rule="evenodd" clip-rule="evenodd" d="M1194 514.75C1186.41 514.75 1180.25 508.594 1180.25 501C1180.25 493.406 1186.41 487.25 1194 487.25C1201.59 487.25 1207.75 493.406 1207.75 501C1207.75 508.594 1201.59 514.75 1194 514.75ZM1194 512.25C1200.21 512.25 1205.25 507.213 1205.25 501C1205.25 494.787 1200.21 489.75 1194 489.75C1187.79 489.75 1182.75 494.787 1182.75 501C1182.75 507.213 1187.79 512.25 1194 512.25ZM1200.14 505.31L1198.09 503.872C1197.16 505.197 1195.65 506 1194 506C1192.35 506 1190.84 505.197 1189.91 503.872L1187.86 505.31C1189.26 507.294 1191.53 508.5 1194 508.5C1196.47 508.5 1198.74 507.294 1200.14 505.31ZM1196.5 499.75V497.25H1199V499.75H1196.5ZM1189 497.25V499.75H1191.5V497.25H1189Z" fill="#EBDFE3"/>
<path fill-rule="evenodd" clip-rule="evenodd" d="M530 612.75C522.406 612.75 516.25 606.594 516.25 599C516.25 591.406 522.406 585.25 530 585.25C537.594 585.25 543.75 591.406 543.75 599C543.75 606.594 537.594 612.75 530 612.75ZM530 610.25C536.213 610.25 541.25 605.213 541.25 599C541.25 592.787 536.213 587.75 530 587.75C523.787 587.75 518.75 592.787 518.75 599C518.75 605.213 523.787 610.25 530 610.25ZM536.138 603.31L534.093 601.872C533.162 603.197 531.649 604 530 604C528.351 604 526.838 603.197 525.907 601.872L523.862 603.31C525.257 605.294 527.528 606.5 530 606.5C532.472 606.5 534.743 605.294 536.138 603.31ZM532.5 597.75V595.25H535V597.75H532.5ZM525 595.25V597.75H527.5V595.25H525Z" fill="#EBDFE3"/>
</svg>
