<svg width="1440" height="900" viewBox="0 0 1440 900" fill="none" xmlns="http://www.w3.org/2000/svg">
<rect width="1440" height="900" fill="#A1C3D1"/>
<rect x="707" y="543" width="395" height="56" rx="5" fill="#FFCADE"/>
<rect x="707" y="292" width="84" height="232" rx="5" fill="#FFCADE"/>
<rect x="717" y="307" width="17" height="195" rx="5" fill="white"/>
<rect x="1019" y="292" width="84" height="232" rx="5" fill="#FFCADE"/>
<rect x="1029" y="307" width="17" height="195" rx="5" fill="white"/>
<path d="M744.297 177.52C746.266 174.465 750.734 174.465 752.703 177.52L814.112 272.791C816.257 276.118 813.868 280.5 809.909 280.5H687.09C683.132 280.5 680.743 276.118 682.888 272.791L744.297 177.52Z" fill="#FFCADE"/>
<rect x="743.038" y="191.639" width="8.55982" height="85.3672" rx="4.27991" transform="rotate(32 743.038 191.639)" fill="white"/>
<path d="M1055.3 177.52C1057.27 174.465 1061.73 174.465 1063.7 177.52L1125.11 272.791C1127.26 276.118 1124.87 280.5 1120.91 280.5H998.09C994.132 280.5 991.743 276.118 993.888 272.791L1055.3 177.52Z" fill="#FFCADE"/>
<rect x="1054.04" y="191.639" width="8.55982" height="85.3672" rx="4.27991" transform="rotate(32 1054.04 191.639)" fill="white"/>
<rect x="807" y="485" width="195" height="34" rx="5" fill="#FFCADE"/>
<rect x="807" y="420" width="195" height="34" rx="5" fill="#FFCADE"/>
<rect x="807" y="355" width="195" height="34" rx="5" fill="#FFCADE"/>
<path d="M464.151 83.0697L504.841 97.8796L471.67 125.713L464.151 83.0697Z" fill="#D9C3CB"/>
<path d="M74.5295 590.852L105.148 621.47L63.3223 632.678L74.5295 590.852Z" fill="#D9C3CB"/>
<path d="M796.651 711.5L834.151 733.151L796.651 754.801L796.651 711.5Z" fill="#D9C3CB"/>
<path fill-rule="evenodd" clip-rule="evenodd" d="M1166.33 94.903C1165.24 94.7473 1164.13 94.6667 1163 94.6667C1161.87 94.6667 1160.76 94.7473 1159.67 94.903V81.4828C1160.76 81.3839 1161.88 81.3333 1163 81.3333C1164.12 81.3333 1165.24 81.3839 1166.33 81.4828V94.903ZM1146.33 118C1146.33 127.205 1153.8 134.667 1163 134.667C1172.2 134.667 1179.67 127.205 1179.67 118C1179.67 108.795 1172.2 101.333 1163 101.333C1153.8 101.333 1146.33 108.795 1146.33 118ZM1173 118C1173 123.523 1168.52 128 1163 128C1157.48 128 1153 123.523 1153 118C1153 112.477 1157.48 108 1163 108C1168.52 108 1173 112.477 1173 118ZM1166.33 154.517V141.097C1165.24 141.253 1164.13 141.333 1163 141.333C1161.87 141.333 1160.76 141.253 1159.67 141.097V154.517C1160.76 154.616 1161.88 154.667 1163 154.667C1164.12 154.667 1165.24 154.616 1166.33 154.517ZM1186.1 114.667H1199.52C1199.62 115.765 1199.67 116.876 1199.67 118C1199.67 119.124 1199.62 120.235 1199.52 121.333H1186.1C1186.25 120.245 1186.33 119.132 1186.33 118C1186.33 116.868 1186.25 115.755 1186.1 114.667ZM1139.67 118C1139.67 116.868 1139.75 115.755 1139.9 114.667H1126.48C1126.38 115.765 1126.33 116.876 1126.33 118C1126.33 119.124 1126.38 120.235 1126.48 121.333H1139.9C1139.75 120.245 1139.67 119.132 1139.67 118ZM1176.97 99.3121L1186.46 89.8224C1188.17 91.248 1189.75 92.8264 1191.18 94.5365L1181.69 104.026C1180.35 102.239 1178.76 100.65 1176.97 99.3121ZM1134.82 94.5365L1144.31 104.026C1145.65 102.239 1147.24 100.65 1149.03 99.3121L1139.54 89.8224C1137.83 91.248 1136.25 92.8264 1134.82 94.5365ZM1181.69 131.974L1191.18 141.464C1189.75 143.174 1188.17 144.752 1186.46 146.178L1176.97 136.688C1178.76 135.35 1180.35 133.761 1181.69 131.974ZM1139.54 146.178L1149.03 136.688C1147.24 135.35 1145.65 133.761 1144.31 131.974L1134.82 141.464C1136.25 143.174 1137.83 144.752 1139.54 146.178Z" fill="#FFCADE"/>
<path fill-rule="evenodd" clip-rule="evenodd" d="M324 196.917C311.343 196.917 301.083 186.657 301.083 174C301.083 161.343 311.343 151.083 324 151.083C336.656 151.083 346.917 161.343 346.917 174C346.917 186.657 336.656 196.917 324 196.917ZM324 192.75C334.355 192.75 342.75 184.355 342.75 174C342.75 163.645 334.355 155.25 324 155.25C313.645 155.25 305.25 163.645 305.25 174C305.25 184.355 313.645 192.75 324 192.75ZM334.23 181.184L330.822 178.787C329.269 180.995 326.749 182.333 324 182.333C321.251 182.333 318.73 180.995 317.178 178.787L313.769 181.184C316.095 184.49 319.88 186.5 324 186.5C328.12 186.5 331.905 184.49 334.23 181.184ZM328.167 171.917V167.75H332.333V171.917H328.167ZM315.667 167.75V171.917H319.833V167.75H315.667Z" fill="#EBDFE3"/>
<path fill-rule="evenodd" clip-rule="evenodd" d="M1204 533.917C1191.34 533.917 1181.08 523.657 1181.08 511C1181.08 498.343 1191.34 488.083 1204 488.083C1216.66 488.083 1226.92 498.343 1226.92 511C1226.92 523.657 1216.66 533.917 1204 533.917ZM1204 529.75C1214.36 529.75 1222.75 521.355 1222.75 511C1222.75 500.645 1214.36 492.25 1204 492.25C1193.64 492.25 1185.25 500.645 1185.25 511C1185.25 521.355 1193.64 529.75 1204 529.75ZM1214.23 518.184L1210.82 515.787C1209.27 517.995 1206.75 519.333 1204 519.333C1201.25 519.333 1198.73 517.995 1197.18 515.787L1193.77 518.184C1196.09 521.49 1199.88 523.5 1204 523.5C1208.12 523.5 1211.91 521.49 1214.23 518.184ZM1208.17 508.917V504.75H1212.33V508.917H1208.17ZM1195.67 504.75V508.917H1199.83V504.75H1195.67Z" fill="#EBDFE3"/>
<path fill-rule="evenodd" clip-rule="evenodd" d="M540 631.917C527.343 631.917 517.083 621.657 517.083 609C517.083 596.343 527.343 586.083 540 586.083C552.656 586.083 562.917 596.343 562.917 609C562.917 621.657 552.656 631.917 540 631.917ZM540 627.75C550.355 627.75 558.75 619.355 558.75 609C558.75 598.645 550.355 590.25 540 590.25C529.645 590.25 521.25 598.645 521.25 609C521.25 619.355 529.645 627.75 540 627.75ZM550.23 616.184L546.822 613.787C545.269 615.995 542.749 617.333 540 617.333C537.251 617.333 534.73 615.995 533.178 613.787L529.769 616.184C532.095 619.49 535.88 621.5 540 621.5C544.12 621.5 547.905 619.49 550.23 616.184ZM544.167 606.917V602.75H548.333V606.917H544.167ZM531.667 602.75V606.917H535.833V602.75H531.667Z" fill="#EBDFE3"/>
</svg>
