<svg width="300" height="200" viewBox="0 0 418 383" fill="none" xmlns="http://www.w3.org/2000/svg">
<rect x="35.2743" y="332.888" width="348.333" height="50.1122" rx="5" fill="#A1C3D1"/>
<rect x="35.2743" y="108.278" width="74.0759" height="207.607" rx="5" fill="#A1C3D1"/>
<rect x="44.0928" y="121.701" width="14.9916" height="174.498" rx="5" fill="#A1C3D1"/>
<rect x="310.414" y="108.278" width="74.0759" height="207.607" rx="5" fill="#A1C3D1"/>
<rect x="319.232" y="121.701" width="14.9916" height="174.498" rx="5" fill="#A1C3D1"/>
<path d="M67.6508 6.64428C69.6149 3.55215 74.1277 3.55216 76.0918 6.64428L129.235 90.3062C131.349 93.635 128.958 97.9872 125.014 97.9872H18.7284C14.7848 97.9872 12.3934 93.635 14.5079 90.3062L67.6508 6.64428Z" fill="#A1C3D1"/>
<rect width="7.57996" height="76.0816" rx="3.78998" transform="matrix(0.844533 0.535504 -0.524347 0.851504 67.0543 18.4692)" fill="#A1C3D1"/>
<path d="M341.908 6.64428C343.872 3.55215 348.385 3.55216 350.349 6.64428L403.492 90.3062C405.607 93.635 403.215 97.9872 399.272 97.9872H292.986C289.042 97.9872 286.651 93.635 288.765 90.3062L341.908 6.64428Z" fill="#A1C3D1"/>
<rect width="7.57996" height="76.0816" rx="3.78998" transform="matrix(0.844533 0.535504 -0.524347 0.851504 341.312 18.4692)" fill="#A1C3D1"/>
<rect x="123.46" y="280.986" width="171.962" height="30.4253" rx="5" fill="#A1C3D1"/>
<rect x="123.46" y="222.82" width="171.962" height="30.4252" rx="5" fill="#A1C3D1"/>
<rect x="123.46" y="164.654" width="171.962" height="30.4252" rx="5" fill="#A1C3D1"/>
</svg>
