<svg width="554" height="519" viewBox="0 0 554 519" fill="none" xmlns="http://www.w3.org/2000/svg">
<rect x="40" y="463" width="395" height="56" rx="5" fill="#FFCADE"/>
<rect x="40" y="212" width="84" height="232" rx="5" fill="#FFCADE"/>
<rect x="50" y="227" width="17" height="195" rx="5" fill="white"/>
<rect x="352" y="212" width="84" height="232" rx="5" fill="#FFCADE"/>
<rect x="362" y="227" width="17" height="195" rx="5" fill="white"/>
<path d="M77.2974 97.5199C79.2665 94.4651 83.7336 94.4651 85.7026 97.52L147.112 192.791C149.257 196.118 146.868 200.5 142.91 200.5H20.0905C16.1319 200.5 13.7432 196.118 15.8879 192.791L77.2974 97.5199Z" fill="#FFCADE"/>
<rect x="76.0376" y="111.639" width="8.55982" height="85.3672" rx="4.27991" transform="rotate(32 76.0376 111.639)" fill="white"/>
<path d="M388.297 97.5199C390.266 94.4651 394.734 94.4651 396.703 97.52L458.112 192.791C460.257 196.118 457.868 200.5 453.91 200.5H331.09C327.132 200.5 324.743 196.118 326.888 192.791L388.297 97.5199Z" fill="#FFCADE"/>
<rect x="387.038" y="111.639" width="8.55982" height="85.3672" rx="4.27991" transform="rotate(32 387.038 111.639)" fill="white"/>
<rect x="140" y="405" width="195" height="34" rx="5" fill="#FFCADE"/>
<rect x="140" y="340" width="195" height="34" rx="5" fill="#FFCADE"/>
<rect x="140" y="275" width="195" height="34" rx="5" fill="#FFCADE"/>
<path fill-rule="evenodd" clip-rule="evenodd" d="M517.333 16.903C516.245 16.7473 515.132 16.6667 514 16.6667C512.868 16.6667 511.755 16.7473 510.667 16.903V3.48282C511.764 3.38389 512.876 3.33334 514 3.33334C515.124 3.33334 516.235 3.38389 517.333 3.48282V16.903ZM497.333 40C497.333 49.2048 504.795 56.6667 514 56.6667C523.205 56.6667 530.667 49.2048 530.667 40C530.667 30.7953 523.205 23.3333 514 23.3333C504.795 23.3333 497.333 30.7953 497.333 40ZM524 40C524 45.5229 519.523 50 514 50C508.477 50 504 45.5229 504 40C504 34.4772 508.477 30 514 30C519.523 30 524 34.4772 524 40ZM517.333 76.5172V63.0971C516.245 63.2528 515.132 63.3334 514 63.3334C512.868 63.3334 511.755 63.2528 510.667 63.0971V76.5172C511.764 76.6161 512.876 76.6667 514 76.6667C515.124 76.6667 516.235 76.6161 517.333 76.5172ZM537.097 36.6667H550.517C550.616 37.7646 550.667 38.8764 550.667 40C550.667 41.1236 550.616 42.2355 550.517 43.3333H537.097C537.253 42.2447 537.333 41.1318 537.333 40C537.333 38.8683 537.253 37.7554 537.097 36.6667ZM490.667 40C490.667 38.8683 490.747 37.7554 490.903 36.6667H477.483C477.384 37.7646 477.333 38.8764 477.333 40C477.333 41.1236 477.384 42.2355 477.483 43.3333H490.903C490.747 42.2447 490.667 41.1318 490.667 40ZM527.974 21.3121L537.463 11.8224C539.174 13.248 540.752 14.8264 542.177 16.5365L532.688 26.0261C531.349 24.2391 529.761 22.6504 527.974 21.3121ZM485.822 16.5365L495.312 26.0261C496.65 24.2391 498.239 22.6504 500.026 21.3121L490.536 11.8224C488.826 13.248 487.248 14.8264 485.822 16.5365ZM532.688 53.9739L542.177 63.4635C540.752 65.1737 539.174 66.752 537.463 68.1776L527.974 58.688C529.761 57.3496 531.349 55.7609 532.688 53.9739ZM490.536 68.1776L500.026 58.688C498.239 57.3496 496.65 55.7609 495.312 53.9739L485.822 63.4635C487.248 65.1737 488.826 66.752 490.536 68.1776Z" fill="#FFCADE"/>
</svg>
