<svg width="703" height="513" viewBox="0 0 703 513" fill="none" xmlns="http://www.w3.org/2000/svg">
<rect y="175.299" width="24.2443" height="333.701" fill="#C4C4C4"/>
<rect x="496.56" y="175.299" width="24.2443" height="333.701" fill="#C4C4C4"/>
<rect x="3.5918" y="175.299" width="502.845" height="16.9391" fill="#C4C4C4"/>
<line y1="-10" x2="312.919" y2="-10" transform="matrix(0.83411 -0.551598 0.596557 0.802571 12.5712 188.85)" stroke="#C4C4C4" stroke-width="20"/>
<line y1="-10" x2="285.453" y2="-10" transform="matrix(-0.797289 -0.603598 0.648066 -0.761585 512.723 175.299)" stroke="#C4C4C4" stroke-width="20"/>
<rect width="368.621" height="24.6636" transform="matrix(0.969515 -0.245032 0.273265 0.961939 506.437 177.439)" fill="#C4C4C4"/>
<rect x="203.628" y="384.672" width="8.48969" height="125.962" fill="#F172A1" stroke="#F172A1" stroke-width="4"/>
<rect x="170.108" y="387.172" width="7.77566" height="168.914" transform="rotate(-90 170.108 387.172)" fill="#F172A1" stroke="#F172A1"/>
<rect x="292.524" y="384.672" width="8.4897" height="125.962" fill="#F172A1" stroke="#F172A1" stroke-width="4"/>
<rect x="77.9165" y="354.181" width="7.59175" height="156.452" fill="#F172A1" stroke="#F172A1" stroke-width="4"/>
<rect x="423.623" y="354.181" width="7.59174" height="156.452" fill="#F172A1" stroke="#F172A1" stroke-width="4"/>
<rect x="78.7124" y="426.867" width="86.8144" height="9.38784" fill="#F172A1" stroke="#F172A1" stroke-width="6"/>
<rect x="343.604" y="422.632" width="86.8144" height="9.38783" fill="#F172A1" stroke="#F172A1" stroke-width="6"/>
<rect x="160.527" y="427.867" width="5.79588" height="82.7671" fill="#F172A1" stroke="#F172A1" stroke-width="4"/>
<rect x="342.808" y="427.867" width="5.7959" height="82.7671" fill="#F172A1" stroke="#F172A1" stroke-width="4"/>
</svg>
