<svg width="311" height="242" viewBox="0 0 311 242" fill="none" xmlns="http://www.w3.org/2000/svg">
<rect x="1" y="82.0415" width="9.82577" height="156.958" fill="#C4C4C4"/>
<rect x="202.246" y="82.0415" width="9.82576" height="156.958" fill="#C4C4C4"/>
<rect x="2.02618" y="86" width="203.794" height="7.96743" fill="#C4C4C4"/>
<line y1="-5" x2="133.346" y2="-5" transform="matrix(0.793293 -0.60884 0.539335 0.842092 6.1308 90.186)" stroke="#C4C4C4" stroke-width="10"/>
<line y1="-5" x2="122.782" y2="-5" transform="matrix(-0.751227 -0.660044 0.591301 -0.806451 208.797 82.0415)" stroke="#C4C4C4" stroke-width="10"/>
<rect width="118.925" height="11.4886" transform="matrix(0.959573 -0.28146 0.237756 0.971325 206.25 83.0483)" fill="#C4C4C4"/>
<rect x="80.7125" y="179.962" width="4.7732" height="60.3655" fill="#F172A1" stroke="#F172A1" stroke-width="3"/>
<rect x="67.8815" y="181.962" width="4.18697" height="67.3175" transform="rotate(-90 67.8815 181.962)" fill="#F172A1" stroke="#F172A1"/>
<rect x="115.822" y="179.962" width="4.77321" height="60.3655" fill="#F172A1" stroke="#F172A1" stroke-width="3"/>
<rect x="31.063" y="165.621" width="4.41856" height="74.7069" fill="#F172A1" stroke="#F172A1" stroke-width="3"/>
<rect x="167.599" y="165.621" width="4.41855" height="74.7069" fill="#F172A1" stroke="#F172A1" stroke-width="3"/>
<rect x="31.2723" y="199.779" width="35.9175" height="5.59349" fill="#F172A1" stroke="#F172A1" stroke-width="4"/>
<rect x="135.891" y="197.788" width="35.9175" height="5.59349" fill="#F172A1" stroke="#F172A1" stroke-width="4"/>
<rect x="63.6898" y="200.279" width="3.70928" height="40.0485" fill="#F172A1" stroke="#F172A1" stroke-width="3"/>
<rect x="135.682" y="200.279" width="3.70927" height="40.0485" fill="#F172A1" stroke="#F172A1" stroke-width="3"/>
</svg>
