<svg width="25" height="25" viewBox="0 0 25 25" fill="none" xmlns="http://www.w3.org/2000/svg">
<path fill-rule="evenodd" clip-rule="evenodd" d="M11.309 8.68552C11.8487 7.95822 12.0422 7.19171 11.4318 6.51511C10.0621 4.59847 9.1409 3.41322 8.56309 2.84243C7.46459 1.75729 5.65754 1.90407 4.70616 2.8415C4.19516 3.34501 4.02217 3.51791 3.49748 4.05084C0.574929 6.97496 2.35725 13.1565 7.09532 17.8992C11.8323 22.6408 18.0132 24.4241 20.9419 21.4938C21.4261 21.027 21.836 20.6169 22.1593 20.2752C23.0916 19.2898 23.2332 17.5624 22.1532 16.4402C21.5995 15.8649 20.4692 14.9882 18.4719 13.5595C17.8602 13.0125 17.1349 13.1311 16.47 13.5673C16.1501 13.7772 15.9173 13.9895 15.4778 14.4294L14.6796 15.228C14.5745 15.3332 13.147 14.6183 11.7613 13.2313C10.3748 11.8435 9.66043 10.4159 9.76507 10.3113L10.5638 9.5121C10.7032 9.37251 10.7699 9.30493 10.8554 9.21507C11.0336 9.02785 11.181 8.85795 11.309 8.68552ZM16.1519 16.7013L16.9503 15.9025C17.1922 15.6604 17.3489 15.5115 17.4765 15.4088C19.2261 16.6653 20.2394 17.4553 20.6533 17.8854C20.9018 18.1436 20.8632 18.6147 20.6472 18.843C20.3482 19.159 19.9598 19.5476 19.4832 20.0074C17.5894 21.902 12.6 20.4625 8.56797 16.4264C4.53465 12.3892 3.09583 7.39902 4.97533 5.51849C5.49789 4.98775 5.66346 4.82227 6.16716 4.32596C6.35602 4.13987 6.87046 4.09808 7.1002 4.32503C7.54506 4.76448 8.37027 5.8211 9.58419 7.51208C9.52135 7.5901 9.44286 7.67827 9.34734 7.77866C9.27724 7.85234 9.21883 7.91154 9.09114 8.03936L8.29321 8.83773C6.93576 10.1951 8.09181 12.5052 10.2886 14.7042C12.484 16.9017 14.7949 18.059 16.1519 16.7013ZM14.2241 2.15587C18.7276 2.70174 22.2985 6.27262 22.8444 10.7761L20.7866 11.119C20.3893 7.49157 17.5087 4.61093 13.8812 4.21361L14.2241 2.15587V2.15587ZM13.5379 6.27302C16.2895 6.51912 18.481 8.71059 18.7271 11.4622L16.6627 11.8062C16.5751 9.93031 15.0698 8.42497 13.1939 8.33737L13.5379 6.27302V6.27302Z" 
fill="#F172A1"/>
</svg>
