<svg width="25" height="25" viewBox="0 0 25 25" fill="none" xmlns="http://www.w3.org/2000/svg">
<path fill-rule="evenodd" clip-rule="evenodd" d="M4.16671 2.0835H20.8334C21.984 2.0835 22.9167 3.01624 22.9167 4.16683V20.8335C22.9167 21.9841 21.984 22.9168 20.8334 22.9168H4.16671C3.01611 22.9168 2.08337 21.9841 2.08337 20.8335V4.16683C2.08337 3.01624 3.01611 2.0835 4.16671 2.0835ZM4.16672 4.16681V20.8335H20.8334V4.16681H4.16672ZM11.5969 12.5048H13.5417V18.7502H15.625V12.5048H17.69V10.4214H15.625V9.37518C15.625 8.79988 16.0914 8.33352 16.6667 8.33352H17.7083V6.25018H16.6667C14.9408 6.25018 13.5417 7.64929 13.5417 9.37518V10.4214H11.5969V12.5048Z"
 fill="#F172A1"/>
</svg>
